<?xml version="1.0" encoding="UTF-8" standalone="no"?>
<svg width="30px" height="36px" viewBox="0 0 30 36" version="1.1" xmlns="http://www.w3.org/2000/svg" xmlns:xlink="http://www.w3.org/1999/xlink">
    <!-- Generator: Sketch 40.1 (33804) - http://www.bohemiancoding.com/sketch -->
    <title>Group 2</title>
    <desc>Created with Sketch.</desc>
    <defs></defs>
    <g id="Desktop" stroke="none" stroke-width="1" fill="none" fill-rule="evenodd">
        <g id="view_fixed-nav" transform="translate(-60.000000, -26.000000)" fill="#1C1C1C">
            <g id="fixed-nav">
                <g id="header">
                    <g transform="translate(60.000000, 26.000000)" id="Group-2">
                        <g>
                            <path d="M11.6324249,14.6695629 C11.6324249,16.1555229 10.4087837,17.3985495 8.84695292,17.3985495 C7.28539226,17.3985495 6.03095743,16.1555229 6.03095743,14.6695629 C6.03095743,13.1223345 7.28539226,11.9100759 8.84695292,11.9100759 C10.4087837,11.9100759 11.6324249,13.1223345 11.6324249,14.6695629" id="Shape"></path>
                            <path d="M18.3065368,2.84448945 C18.3065368,5.87687514 17.9705082,6.11900582 15.0008147,6.11900582 C13.439254,6.11900582 12.1840089,7.33260221 12.1840089,8.8782253 C12.1840089,10.424651 13.439254,11.6066768 15.0008147,11.6066768 C16.4999778,11.6066768 17.7252397,10.424651 17.7252397,8.8782253 C17.7252397,5.87687514 17.9705082,5.63420938 21.0312319,5.63420938 C22.5919822,5.63420938 23.816974,4.39091519 23.816974,2.84448945 C23.816974,1.29779617 22.5919822,0.0855375174 21.0312319,0.0855375174 C19.5312585,0.0855375174 18.3065368,1.29779617 18.3065368,2.84448945" id="Shape"></path>
                            <path d="M24.2145899,26.9802355 C24.2145899,30.0126212 24.0006552,30.2550194 20.9091379,30.2550194 C19.3478474,30.2550194 18.1536492,31.4985811 18.1536492,32.984006 C18.1536492,34.5007339 19.3478474,35.7437606 20.9091379,35.7437606 C22.4698882,35.7437606 23.6946099,34.5007339 23.6946099,32.984006 C23.6946099,30.0126212 23.9393381,29.7094896 27.0008722,29.7094896 C28.5621628,29.7094896 29.7860741,28.4661954 29.7860741,26.9802355 C29.7860741,25.4643102 28.5621628,24.2202134 27.0008722,24.2202134 C25.4401219,24.2202134 24.2145899,25.4643102 24.2145899,26.9802355" id="Shape"></path>
                            <path d="M24.2145899,14.9135664 C24.2145899,17.9443468 23.9393381,18.1872802 20.9091379,18.1872802 C19.3478474,18.1872802 18.1536492,19.4305743 18.1536492,20.9459645 C18.1536492,22.4929254 19.3478474,23.7364871 20.9091379,23.7364871 C22.4698882,23.7364871 23.6946099,22.4929254 23.6946099,20.9459645 C23.6946099,17.9443468 23.9393381,17.7016811 27.0008722,17.7016811 C28.5621628,17.7016811 29.7860741,16.4591895 29.7860741,14.9135664 C29.7860741,13.4575718 28.5621628,12.213475 27.0008722,12.213475 C25.4401219,12.213475 24.2145899,13.4575718 24.2145899,14.9135664" id="Shape"></path>
                            <path d="M12.0608344,32.984006 C12.0608344,34.5007339 13.3160796,35.7437606 14.8776402,35.7437606 C16.3778838,35.7437606 17.6026055,34.5007339 17.6026055,32.984006 C17.6026055,31.4985811 16.3778838,30.2550194 14.8776402,30.2550194 C13.3160796,30.2550194 12.0608344,31.4985811 12.0608344,32.984006" id="Shape"></path>
                            <path d="M5.54069059,14.8517629 C5.54069059,17.8849512 5.78595907,18.1268144 8.84695292,18.1268144 C10.4085136,18.1268144 11.6324249,19.3703761 11.6324249,20.8857663 C11.6324249,22.4319245 10.4085136,23.6757538 8.84695292,23.6757538 C7.28539226,23.6757538 6.03068731,22.4319245 6.03068731,20.8857663 C6.03068731,17.8849512 5.78595907,17.6414828 2.81599549,17.6414828 C1.25524518,17.6414828 0,16.3987237 0,14.8517629 C0,13.3050696 1.25524518,12.092811 2.81599549,12.092811 C4.28571553,12.092811 5.54069059,13.3050696 5.54069059,14.8517629" id="Shape"></path>
                            <path d="M5.54069059,20.8857663 C5.54069059,23.918152 5.78595907,24.1608178 8.84695292,24.1608178 C10.4085136,24.1608178 11.6324249,25.4035769 11.6324249,26.8590364 C11.6324249,28.4062648 10.4085136,29.6487563 8.84695292,29.6487563 C7.28539226,29.6487563 6.03068731,28.4062648 6.03068731,26.8590364 C6.03068731,23.918152 5.78595907,23.6760213 2.81599549,23.6760213 C1.25524518,23.6760213 0,22.4319245 0,20.8857663 C0,19.3703761 1.25524518,18.1268144 2.81599549,18.1268144 C4.28571553,18.1268144 5.54069059,19.3703761 5.54069059,20.8857663" id="Shape"></path>
                            <path d="M17.7249696,20.8857663 C17.7249696,23.918152 17.9702381,24.1608178 21.0309618,24.1608178 C22.530395,24.1608178 23.7556569,25.4035769 23.7556569,26.8590364 C23.7556569,28.4062648 22.530395,29.6487563 21.0309618,29.6487563 C19.4696712,29.6487563 18.2146962,28.4062648 18.2146962,26.8590364 C18.2146962,23.918152 17.9702381,23.6760213 14.9392275,23.6760213 C13.3773967,23.6760213 12.1229619,22.4319245 12.1229619,20.8857663 C12.1229619,19.3703761 13.3773967,18.1268144 14.9392275,18.1268144 C16.4999778,18.1268144 17.7249696,19.3703761 17.7249696,20.8857663" id="Shape"></path>
                            <path d="M5.54069059,26.8590364 C5.54069059,29.8914221 5.78595907,30.1335527 8.84695292,30.1335527 C10.4085136,30.1335527 11.6324249,31.377382 11.6324249,32.92247 C11.6324249,34.439198 10.4085136,35.6822246 8.84695292,35.6822246 C7.28539226,35.6822246 6.03068731,34.439198 6.03068731,32.92247 C6.03068731,29.8914221 5.78595907,29.6487563 2.81599549,29.6487563 C1.25524518,29.6487563 0,28.4062648 0,26.8590364 C0,25.4035769 1.25524518,24.1608178 2.81599549,24.1608178 C4.28571553,24.1608178 5.54069059,25.4035769 5.54069059,26.8590364" id="Shape"></path>
                            <path d="M27.1845535,23.6144854 C25.623533,23.6144854 24.3985412,22.3714587 24.3985412,20.8261032 C24.3985412,19.308305 25.623533,18.066081 27.1845535,18.066081 C28.7455739,18.066081 29.9700254,19.308305 29.9700254,20.8261032 C29.9700254,22.3714587 28.7455739,23.6144854 27.1845535,23.6144854" id="Shape"></path>
                            <path d="M20.9088678,17.5197486 C19.3478474,17.5197486 18.1533791,16.276722 18.1533791,14.7305638 C18.1533791,13.183603 19.3478474,11.9716119 20.9088678,11.9716119 C22.4696181,11.9716119 23.6946099,13.183603 23.6946099,14.7305638 C23.6946099,16.276722 22.4696181,17.5197486 20.9088678,17.5197486" id="Shape"></path>
                            <path d="M11.6324249,8.75782883 C11.6324249,10.3034519 10.4087837,11.5470137 8.84695292,11.5470137 C7.28539226,11.5470137 6.03095743,10.3034519 6.03095743,8.75782883 C6.03095743,7.210868 7.28539226,5.99807425 8.84695292,5.99807425 C10.4087837,5.99807425 11.6324249,7.210868 11.6324249,8.75782883" id="Shape"></path>
                        </g>
                    </g>
                </g>
            </g>
        </g>
    </g>
</svg>