<?xml version="1.0" encoding="utf-8"?>
<!-- Generator: Adobe Illustrator 25.0.1, SVG Export Plug-In . SVG Version: 6.00 Build 0)  -->
<svg version="1.1" id="Layer_1" xmlns="http://www.w3.org/2000/svg" xmlns:xlink="http://www.w3.org/1999/xlink" x="0px" y="0px"
	 viewBox="0 0 562.5 132.6" style="enable-background:new 0 0 562.5 132.6;" xml:space="preserve">
<style type="text/css">
	.st0{fill:#191A1E;}
</style>
<g>
	<g>
		<path class="st0" d="M103.6,62.8l-10.1-4.2L75.6,69.3L69,51.9l-12.1,7.6l1.5,3.6l26.3,10.4l-9.6,26.2l6,2l-2.6,7.1l-13.3-4.6
			l9.5-26.4l-12.9-5.2l5.9,15l-32.6,0.1l-1.8,5.7l-7.2-2.6l3.8-10.5h27l-9.2-24.2l18.5-11.2l-3.8-10.2L48.1,54l-11.2-4.4l3.1-7.3
			l6,2.4l14.7-19.5l7.8,3.1L79.7,58l13.5-7.9l13.6,5.5L103.6,62.8z M85.4,42.1c2,0,3.6-1.6,3.6-3.6c0-2-1.6-3.6-3.6-3.6
			c-2,0-3.6,1.6-3.6,3.6C81.8,40.5,83.4,42.1,85.4,42.1z M85.4,38.5 M74.5,38.5c0-6,4.9-10.9,10.9-10.9c6,0,10.9,4.9,10.9,10.9
			c0,6-4.9,10.9-10.9,10.9C79.4,49.3,74.5,44.5,74.5,38.5z M85.4,38.5 M85.4,38.5"/>
	</g>
	<g>
		<path class="st0" d="M0,66.3c0,36.5,29.7,66.3,66.3,66.3c36.5,0,66.3-29.7,66.3-66.3C132.6,29.7,102.8,0,66.3,0
			C29.7,0,0,29.7,0,66.3z M5.4,66.3c0-33.6,27.3-60.9,60.9-60.9c33.6,0,60.9,27.3,60.9,60.9c0,33.6-27.3,60.9-60.9,60.9
			C32.7,127.1,5.4,99.8,5.4,66.3z"/>
	</g>
</g>
<g>
	<g>
		<g>
			<g>
				<polygon class="st0" points="539.1,54.9 539.1,72.8 502.3,72.8 502.3,77.6 539.2,77.6 539.2,90.6 502.4,90.6 502.4,95 539.2,95 
					539.2,109 472.2,109 472.2,54.9 				"/>
				<rect x="435.9" y="54.9" class="st0" width="30.2" height="54.1"/>
				<polygon class="st0" points="434.9,54.9 398.3,54.9 384.1,75.9 384.1,54.9 353.7,54.9 353.7,109 383.9,109 383.9,91.4 
					398.4,109 433.1,109 409.4,82.9 				"/>
				<polygon class="st0" points="250.1,68.1 256.8,87.4 247.2,87.4 247.2,102.4 260.2,102.4 262.1,109 293.8,109 274.4,54.9 
					226.3,54.9 206.9,109 237.6,109 				"/>
				<polygon class="st0" points="206.7,54.9 206.7,109 178.3,109 178.3,81.7 167.5,109 151.4,109 140.6,80.5 140.6,109 112.5,109 
					112.5,54.8 150.6,54.8 160,82.7 168.9,54.9 				"/>
				<path class="st0" d="M562.5,102.9c0,3.8-2.7,7.2-9.4,7.2c-6.7,0-9.4-3.8-9.4-7.2c0-3.5,2.7-7.2,9.4-7.2
					C559.9,95.6,562.5,99.1,562.5,102.9z"/>
			</g>
		</g>
	</g>
	<path class="st0" d="M349,55.6c0,0-13.5-1.8-25.8-1.8c-16.7,0-36.4,5.3-36.4,29c0,14.6,10.7,27.9,34.2,27.9c14,0,27.8-2.9,27.8-2.9
		V89.9c0,0-5.3,2.2-17.1,2.2c-12.8,0-13.2-5.2-13.2-9.1c0-3.9,4.1-7.7,13.7-7.7c11.3,0,16.7,1.6,16.7,1.6V55.6z"/>
</g>
<g>
	<path class="st0" d="M543.5,58.7c0-2.9,2.3-5.2,5.2-5.2c2.8,0,5.1,2.3,5.1,5.2c0,2.9-2.3,5.2-5.1,5.2
		C545.8,63.9,543.5,61.6,543.5,58.7z M553.1,58.7c0-2.5-2-4.5-4.5-4.5c-2.5,0-4.5,2-4.5,4.5c0,2.5,2,4.6,4.5,4.6
		C551.1,63.3,553.1,61.2,553.1,58.7z M551.2,61.6h-0.8l-1.6-2.7h-1.3v2.7h-0.7v-5.8h2.5c0.5,0,1,0,1.4,0.3c0.4,0.3,0.6,0.8,0.6,1.3
		c0,1.1-0.8,1.6-1.8,1.6L551.2,61.6z M548.5,58.4c0.1,0,0.3,0,0.5,0c0.8,0,1.6-0.1,1.6-1c0-0.9-0.8-1-1.5-1h-1.6v2H548.5z"/>
</g>
<g>
	<path class="st0" d="M55.4,103.1c0-1.9,1.5-3.5,3.4-3.5c1.9,0,3.4,1.6,3.4,3.5c0,1.9-1.5,3.5-3.4,3.5
		C56.9,106.6,55.4,105,55.4,103.1z M61.8,103.1c0-1.7-1.3-3-3-3c-1.7,0-3,1.4-3,3c0,1.7,1.3,3.1,3,3.1
		C60.5,106.1,61.8,104.8,61.8,103.1z M60.5,105h-0.6l-1.1-1.8H58v1.8h-0.5v-3.9h1.7c0.3,0,0.6,0,0.9,0.2c0.3,0.2,0.4,0.5,0.4,0.8
		c0,0.8-0.5,1-1.2,1.1L60.5,105z M58.7,102.9c0.1,0,0.2,0,0.3,0c0.5,0,1-0.1,1-0.7c0-0.6-0.5-0.7-1-0.7H58v1.4H58.7z"/>
</g>
</svg>
